<svg display="none"
    xmlns="http://www.w3.org/2000/svg">
    <symbol width="27" height="28" viewBox="0 0 27 28" id="globe-icon">
        <path d="M19.6743 6.55704L19.7004 6.76178L19.4 6.82529L19.36 7.26141H19.7198L20.1984 7.21434L20.4455 6.91433L20.1829 6.80998L20.0391 6.64098L19.8231 6.28369L19.7198 5.77838L19.3139 5.86288L19.2001 6.04096V6.24172L19.3955 6.3784L19.6743 6.55704Z" fill="white"/>
        <path d="M19.3284 6.72489L19.35 6.45154L19.1118 6.34662L18.7787 6.42545L18.5316 6.83038V7.09295H18.8197L19.3284 6.72489Z" fill="white"/>
        <path d="M12.4708 7.88583L12.3975 8.07865H12.0427V8.26581H12.1271C12.1271 8.26581 12.1321 8.3055 12.1393 8.35768L12.357 8.33896L12.493 8.25276L12.5286 8.07865L12.7046 8.06334L12.774 7.91702L12.6124 7.883L12.4708 7.88583Z" fill="white"/>
        <path d="M11.5563 8.2255L11.5424 8.40868L11.7995 8.38656L11.8262 8.20281L11.6718 8.07861L11.5563 8.2255Z" fill="white"/>
        <path d="M26.9967 14.0692C26.9928 13.6659 26.9728 13.2656 26.9356 12.8714C26.8107 11.5574 26.503 10.2978 26.0422 9.11704C26.0077 9.02913 25.9761 8.9401 25.9394 8.85333C25.3253 7.37143 24.463 6.02224 23.4074 4.85793C23.338 4.78194 23.2675 4.70708 23.197 4.63335C22.9976 4.42181 22.7927 4.21538 22.5806 4.01745C20.1807 1.78582 16.9935 0.423584 13.4997 0.423584C9.97654 0.423584 6.76652 1.8102 4.35998 4.07587C3.79916 4.60386 3.28387 5.18006 2.81633 5.79709C1.05279 8.12684 0 11.0453 0 14.2115C0 21.815 6.05633 28 13.5003 28C18.7365 28 23.2825 24.9375 25.5202 20.4754C25.9988 19.5215 26.3714 18.5047 26.6224 17.439C26.6863 17.1685 26.7412 16.8969 26.789 16.6218C26.925 15.8386 26.9994 15.0333 26.9994 14.2115C27 14.1639 26.9972 14.1168 26.9967 14.0692ZM24.4558 8.55842L24.534 8.46881C24.6368 8.67241 24.7328 8.87941 24.8245 9.08925L24.6967 9.08415L24.4558 9.11817V8.55842ZM22.5051 6.15268L22.5073 5.53678C22.7194 5.76647 22.9238 6.00296 23.1192 6.24796L22.876 6.61772L22.0259 6.60978L21.9726 6.42887L22.5051 6.15268ZM6.22013 4.62201V4.59876H6.49055L6.51387 4.50405H6.95642V4.70141L6.82927 4.87495H6.21958L6.22013 4.62201ZM6.65213 5.23734C6.65213 5.23734 6.92255 5.19027 6.94587 5.19027C6.96919 5.19027 6.94587 5.46589 6.94587 5.46589L6.33619 5.50502L6.22013 5.36324L6.65213 5.23734ZM25.3159 10.7107H24.328L23.7261 10.253L23.0926 10.3159V10.7107H22.8921L22.6756 10.553L21.5783 10.2689V9.54295L20.1879 9.65354L19.7571 9.89003H19.2051L18.9347 9.86224L18.2645 10.2422V10.9574L16.8946 11.9668L17.0085 12.3979H17.2861L17.2134 12.8085L17.0179 12.8816L17.0074 13.9546L18.1912 15.3316H18.7065L18.7376 15.2477H19.6638L19.9309 14.9953H20.4561L20.7443 15.2902L21.5273 15.373L21.4234 16.4364L22.2924 18.0033L21.8349 18.8965L21.866 19.3173L22.2263 19.6843V20.696L22.6994 21.3459V22.1864H23.1081C20.8337 25.0385 17.3722 26.8652 13.4992 26.8652C6.66824 26.8658 1.11054 21.1889 1.11054 14.2115C1.11054 12.4551 1.46369 10.781 2.09948 9.25939V8.86467L2.54258 8.31512C2.69639 8.01852 2.86131 7.72928 3.03733 7.44742L3.05732 7.67711L2.54314 8.31512C2.38377 8.62251 2.23496 8.93669 2.10003 9.25939V9.97964L2.61477 10.2326V11.2335L3.1084 12.0939L3.50986 12.1568L3.5615 11.8619L3.08786 11.1156L2.99513 10.3902H3.27276L3.38992 11.1366L4.07457 12.1568L3.89799 12.4863L4.33333 13.1663L5.41444 13.4397V13.261L5.84699 13.324L5.8059 13.6393L6.14573 13.7028L6.67046 13.8491L7.41174 14.7117L8.35848 14.7849L8.45121 15.5738L7.80321 16.0365L7.77267 16.7409L7.67994 17.1719L8.61723 18.3702L8.68886 18.7808C8.68886 18.7808 9.02869 18.875 9.07033 18.875C9.11142 18.875 9.83217 19.4325 9.83217 19.4325V21.5983L10.0893 21.672L9.91434 22.6713L10.3469 23.2606L10.2669 24.2508L10.8383 25.2767L11.5718 25.9312L12.3092 25.9448L12.3814 25.7026L11.8395 25.2364L11.8706 25.005L11.9677 24.7215L11.9883 24.4322L11.6218 24.4209L11.4369 24.1838L11.7412 23.885L11.7823 23.6593L11.4424 23.56L11.4624 23.3502L11.9466 23.2753L12.6829 22.914L12.93 22.4513L13.7024 21.4418L13.5269 20.6524L13.764 20.2321L14.4742 20.2542L14.9523 19.8675L15.1067 18.3442L15.637 17.6562L15.7297 17.2144L15.246 17.0562L14.9268 16.5214L13.8357 16.5101L12.9706 16.1732L12.9295 15.5431L12.6407 15.0276L11.8583 15.0157L11.4064 14.2909L11.0049 14.0907L10.9844 14.3119L10.2536 14.3561L9.98597 13.9756L9.22359 13.8174L8.59558 14.5586L7.6072 14.3873L7.53557 13.2497L6.81427 13.1238L7.10357 12.5657L7.02083 12.2453L6.07299 12.8924L5.47663 12.8181L5.26396 12.3423L5.39389 11.8517L5.72261 11.233L6.47944 10.8417L7.94092 10.8411L7.93703 11.2965L8.46231 11.546L8.42067 10.7679L8.79936 10.3789L9.56341 9.86621L9.61561 9.50552L10.3774 8.69567L11.1876 8.23743L11.1159 8.17731L11.6646 7.64989L11.8656 7.70433L11.9577 7.82229L12.166 7.58637L12.217 7.56312L11.9888 7.53022L11.7573 7.45139V7.22454L11.88 7.12189H12.1504L12.2742 7.17747L12.3814 7.39865L12.5125 7.37823V7.35895L12.5502 7.372L12.93 7.31245L12.9839 7.12303L13.2004 7.17861V7.38391L12.9994 7.52512H13L13.0294 7.75027L13.7174 7.96691C13.7174 7.96691 13.7179 7.96975 13.7191 7.97542L13.8773 7.96181L13.8879 7.65726L13.3426 7.40375L13.3115 7.25744L13.764 7.09978L13.784 6.65742L13.3109 6.36308L13.2798 5.61731L12.6313 5.94284H12.3947L12.4569 5.37515L11.574 5.16248L11.2087 5.44434V6.3041L10.5518 6.51677L10.2886 7.07709L10.0032 7.12416V6.40732L9.38573 6.31998L9.077 6.11468L8.95262 5.65021L10.057 4.99007L10.5973 4.8222L10.6517 5.1931L10.9527 5.17722L10.976 4.99064L11.2909 4.9447L11.2964 4.87948L11.1609 4.8222L11.1298 4.62484L11.5169 4.59138L11.7506 4.34298L11.7634 4.32484L11.7662 4.32597L11.8372 4.25111L12.6507 4.14619L13.0105 4.45811L12.0671 4.97136L13.2676 5.26059L13.4231 4.85056H13.9478L14.1333 4.49327L13.7624 4.39856V3.94656L12.5991 3.42027L11.7962 3.51498L11.3431 3.75714L11.3741 4.34582L10.9005 4.27209L10.8278 3.94656L11.2814 3.52576L10.458 3.48379L10.2214 3.55695L10.1187 3.84051L10.4274 3.89382L10.3658 4.20914L9.84105 4.2409L9.75887 4.45074L8.99759 4.47229C8.99759 4.47229 8.97649 4.03106 8.94595 4.03106C8.91541 4.03106 9.54287 4.02029 9.54287 4.02029L9.99652 3.56772L9.74887 3.44125L9.4196 3.76792L8.87321 3.73616L8.54394 3.27339H7.84374L7.11301 3.83087H7.78266L7.84374 4.03106L7.66994 4.1961L8.41123 4.21708L8.5245 4.49044L7.68993 4.45868L7.6494 4.24827L7.12467 4.13258L6.84648 3.97492L6.2218 3.98002C8.26686 2.45843 10.7817 1.55783 13.4997 1.55783C16.6326 1.55783 19.495 2.7539 21.6789 4.71899L21.5317 4.9878L20.9603 5.21636L20.7193 5.48347L20.7749 5.79482L21.0697 5.83679L21.2474 6.29049L21.756 6.08122L21.8399 6.68804H21.6866L21.2691 6.62509L20.806 6.70449L20.3579 7.35101L19.7171 7.45366L19.6243 8.01398L19.8948 8.0792L19.8165 8.43932L19.1801 8.30889L18.5965 8.43932L18.4727 8.77109L18.5738 9.46752L18.9164 9.63142L19.4911 9.62802L19.8792 9.59229L19.9975 9.27697L20.6038 8.47222L21.0031 8.55558L21.3962 8.19263L21.4695 8.47619L22.4368 9.14256L22.3185 9.30476L21.8826 9.28094L22.0503 9.52367L22.3185 9.58378L22.6328 9.44994L22.6261 9.06316L22.7655 8.9917L22.6533 8.87034L22.0081 8.50284L21.8382 8.01455H22.3746L22.5462 8.18809L23.0082 8.59472L23.0276 9.08641L23.5062 9.60703L23.6845 8.89359L24.016 8.70871L24.0782 9.29228L24.4019 9.65524L25.0477 9.6439C25.1726 9.97226 25.2848 10.3063 25.3831 10.6471L25.3159 10.7107ZM7.36343 6.68804L7.68771 6.53038L7.9809 6.60184L7.87984 7.00393L7.56333 7.10658L7.36343 6.68804ZM9.08422 7.63457V7.89489H8.34349L8.06585 7.81605L8.13526 7.63457L8.49119 7.48429H8.9776V7.63457H9.08422ZM9.42515 7.99753V8.24991L9.23969 8.37184L9.0087 8.41551C9.0087 8.41551 9.0087 8.03723 9.0087 7.99753H9.42515ZM9.21637 7.89489V7.59488L9.47124 7.83193L9.21637 7.89489ZM9.33242 8.50171V8.74727L9.15529 8.92875H8.76161L8.82324 8.65313L9.00926 8.63668L9.04757 8.54197L9.33242 8.50171ZM8.35182 7.99753H8.76105L8.23632 8.74671L8.01976 8.62818L8.06641 8.31286L8.35182 7.99753ZM10.0276 8.41551V8.6605H9.63393L9.52621 8.50171V8.27372H9.55731L10.0276 8.41551ZM9.66392 8.07863L9.77608 7.9584L9.96543 8.07863L9.81384 8.20624L9.66392 8.07863ZM25.5169 11.3492L25.5557 11.3027C25.5718 11.3742 25.5891 11.4457 25.6046 11.5182L25.5169 11.3492Z" fill="white"/>
        <path d="M2.09998 8.86467V9.25939C2.23491 8.93726 2.38372 8.62307 2.54308 8.31512L2.09998 8.86467Z" fill="white"/>
    </symbol>

    <symbol width="33" height="22" viewBox="0 0 33 22" id="burger-icon">
        <line x1="0" y1="2" x2="33" y2="2" stroke-width="3"/>
        <line x1="0" y1="11" x2="33" y2="11" stroke-width="3"/>
        <line x1="0" y1="20" x2="33" y2="20" stroke-width="3"/>
    </symbol>

    <symbol viewBox="0 0 29 41" id="bulb-icon">
        <path d="M20.7696 34.315V35.8635C20.7696 37.0958 19.8303 38.1209 18.608 38.2954L18.2119 39.7022C17.9969 40.4656 17.284 41 16.4578 41H12.5309C11.7047 41 10.9918 40.4656 10.7768 39.7022L10.392 38.2954C9.15845 38.11 8.21915 37.0958 8.21915 35.8526V34.3041C8.21915 33.4753 8.90948 32.81 9.76956 32.81H19.2192C20.0792 32.8209 20.7696 33.4862 20.7696 34.315ZM28.0463 13.4421C28.0463 16.9646 26.5978 20.1598 24.2438 22.5045C22.4558 24.293 21.3015 26.5722 20.9167 29.0041C20.7469 30.051 19.8076 30.8253 18.6986 30.8253H10.2901C9.1924 30.8253 8.24178 30.0619 8.08335 29.015C7.68726 26.5831 6.52162 24.2712 4.73355 22.4936C2.42491 20.1816 0.987668 17.0409 0.953718 13.5839C0.8745 6.32095 6.87244 0.442965 14.4095 0.388439C21.9352 0.333912 28.0463 6.20099 28.0463 13.4421ZM16.0278 5.53576C16.0278 4.72877 15.3488 4.06354 14.5 4.06354C9.11318 4.06354 4.72224 8.28391 4.72224 13.4858C4.72224 14.2928 5.40125 14.958 6.25001 14.958C7.08746 14.958 7.77779 14.3037 7.77779 13.4858C7.77779 9.90881 10.7994 7.00799 14.5 7.00799C15.3488 7.00799 16.0278 6.35366 16.0278 5.53576Z"/>
    </symbol>

    <symbol viewBox="0 0 48 39" id="design-icon">
        <path d="M20.2312 15.6683C17.7245 15.6683 16.3099 17.6671 16.0563 19.5242C15.8802 20.8134 15.4117 22.093 14.9679 23.0819H20.2312C22.5277 23.0819 24.396 21.419 24.396 19.3751C24.396 17.3312 22.5277 15.6683 20.2312 15.6683Z" />
        <path d="M46.2348 0H1.62486C0.858158 0 0.23658 0.553217 0.23658 1.23559V23.082H11.9419C12.3823 22.2447 13.0975 20.7082 13.3 19.226C13.5212 17.607 14.2803 16.1189 15.4376 15.0363C16.7052 13.8504 18.4077 13.1972 20.2313 13.1972C20.5643 13.1972 20.8917 13.2195 21.2123 13.2601L29.3378 6.02814C30.1243 5.32797 31.1703 4.94238 32.2827 4.94238C33.3952 4.94238 34.4412 5.32797 35.2277 6.02822C36.0143 6.72822 36.4477 7.65912 36.4477 8.64916C36.4477 9.63929 36.0143 10.5701 35.2276 11.2703L27.1021 18.5022C27.1475 18.7875 27.1727 19.0787 27.1727 19.3752C27.1727 20.7649 26.654 22.0487 25.7806 23.082H47.6231V1.23559C47.6231 0.553135 47.0015 0 46.2348 0Z"/>
        <path d="M26.0197 15.9707L33.2643 9.52282C33.5266 9.28937 33.671 8.97907 33.671 8.64917C33.671 8.31918 33.5266 8.00897 33.2643 7.7756C33.002 7.54208 32.6534 7.41357 32.2827 7.41357C31.9119 7.41357 31.5633 7.54208 31.3011 7.77544L24.0565 14.2234C24.8349 14.6828 25.5035 15.2778 26.0197 15.9707Z"/>
        <path d="M0.23658 30.0836C0.23658 30.766 0.858158 31.3192 1.62486 31.3192H46.2348C47.0015 31.3192 47.6231 30.766 47.6231 30.0836V25.5531H0.23658V30.0836Z"/>
        <path d="M30.8712 36.2616H29.483V33.7904H18.3767V36.2616H16.9885C16.2218 36.2616 15.6002 36.8148 15.6002 37.4972C15.6002 38.1796 16.2218 38.7328 16.9885 38.7328H30.8712C31.6378 38.7328 32.2595 38.1796 32.2595 37.4972C32.2595 36.8148 31.6378 36.2616 30.8712 36.2616Z"/>
    </symbol>

    <symbol viewBox="0 0 51 32" id="dev-icon">
        <path d="M7.2085 0.586243H43.135C47.0449 0.586243 50.2267 3.29409 50.2267 6.62246V25.7514C50.2267 29.0798 47.0449 31.7877 43.135 31.7877H7.2085C3.29856 31.7877 0.116776 29.0798 0.116776 25.7514V6.62246C0.116776 3.29409 3.29856 0.586243 7.2085 0.586243ZM32.0413 10.1891L39.502 16.5384L32.8673 22.1849C32.2938 22.6729 32.2938 23.4642 32.8673 23.9515C33.4399 24.4396 34.3696 24.4396 34.9432 23.9515L42.6162 17.4213C43.1898 16.9333 43.1898 16.1428 42.6162 15.6547L34.1181 8.42241C33.5446 7.93432 32.6148 7.93432 32.0413 8.42241C31.4687 8.90967 31.4687 9.70096 32.0413 10.1891ZM19.9317 7.24965L27.6948 25.9563C27.965 26.6077 28.8037 26.9484 29.5681 26.7185C30.3325 26.4886 30.7337 25.7748 30.4636 25.1242L22.7005 6.41756C22.4304 5.76705 21.5926 5.42554 20.8272 5.65543C20.0629 5.88532 19.6616 6.59914 19.9317 7.24965ZM7.72722 16.7192L16.2253 23.9515C16.7989 24.4396 17.7286 24.4396 18.3022 23.9515C18.8747 23.4642 18.8747 22.6729 18.3022 22.1849L10.8415 15.8355L17.4761 10.1891C18.0497 9.70096 18.0497 8.90967 17.4761 8.42241C16.9036 7.93432 15.9738 7.93432 15.4003 8.42241L7.72722 14.9526C7.15369 15.4406 7.15369 16.2311 7.72722 16.7192Z"/>
    </symbol>

    <symbol viewBox="0 0 43 41" id="maintenance-icon">
        <path d="M23.0957 0H3.7793C1.69539 0 0 1.61654 0 3.60352V9.60938H18.8965L23.0957 0ZM6.29883 6.00586C5.6031 6.00586 5.03906 5.46805 5.03906 4.80469C5.03906 4.14132 5.6031 3.60352 6.29883 3.60352C6.99455 3.60352 7.55859 4.14132 7.55859 4.80469C7.55859 5.46805 6.99455 6.00586 6.29883 6.00586ZM11.3379 6.00586C10.6422 6.00586 10.0781 5.46805 10.0781 4.80469C10.0781 4.14132 10.6422 3.60352 11.3379 3.60352C12.0336 3.60352 12.5977 4.14132 12.5977 4.80469C12.5977 5.46805 12.0336 6.00586 11.3379 6.00586ZM16.377 6.00586C15.6812 6.00586 15.1172 5.46805 15.1172 4.80469C15.1172 4.14132 15.6812 3.60352 16.377 3.60352C17.0727 3.60352 17.6367 4.14132 17.6367 4.80469C17.6367 5.46805 17.0727 6.00586 16.377 6.00586Z" />
        <path d="M25.2794 18.8879V23.3027C25.2794 23.9661 24.7153 24.5039 24.0196 24.5039H18.9805C18.2847 24.5039 17.7207 23.9661 17.7207 23.3027V18.8879C16.1653 20.0025 15.2012 21.7688 15.2012 23.6846C15.2012 25.9713 16.5426 28.028 18.7018 29.0523C19.1298 29.2553 19.4004 29.6718 19.4004 30.1277V41H23.5996V30.1277C23.5996 29.6719 23.8702 29.2553 24.2982 29.0523C26.4574 28.0281 27.7988 25.9713 27.7988 23.6846C27.7988 21.7687 26.8348 20.0025 25.2794 18.8879Z" />
        <path d="M39.2207 0H25.8252L20.8992 11.2726C20.7036 11.7202 20.2449 12.0117 19.7363 12.0117H0V37.3965C0 39.3835 1.69539 41 3.7793 41H16.8809V30.8344C14.2719 29.3099 12.6816 26.6344 12.6816 23.6847C12.6816 20.1341 15.044 16.9511 18.56 15.7643C18.9456 15.634 19.3734 15.6904 19.7076 15.9157C20.0416 16.1407 20.2402 16.5064 20.2402 16.8965V22.1016H22.7598V16.8965C22.7598 16.5064 22.9585 16.1407 23.2926 15.9156C23.6266 15.6904 24.0546 15.634 24.44 15.7642C27.956 16.9511 30.3184 20.134 30.3184 23.6846C30.3184 26.6343 28.7281 29.3099 26.1191 30.8344V41H39.2207C41.3046 41 43 39.3835 43 37.3965V3.60352C43 1.61654 41.3046 0 39.2207 0ZM9.6582 18.0176H6.29883C5.6031 18.0176 5.03906 17.4798 5.03906 16.8164C5.03906 16.153 5.6031 15.6152 6.29883 15.6152H9.6582C10.3539 15.6152 10.918 16.153 10.918 16.8164C10.918 17.4798 10.3539 18.0176 9.6582 18.0176Z" />
    </symbol>

    <symbol viewBox="0 0 44 35" id="testing-icon">
        <path d="M40.1328 0H3.86719C1.73473 0 0 1.65588 0 3.69141V28.4648C0 30.5004 1.73473 32.1562 3.86719 32.1562H15.4688V34.6172H28.4453V32.1562H40.1328C42.2653 32.1562 44 30.5004 44 28.4648V3.69141C44 1.65588 42.2653 0 40.1328 0ZM15.0911 21.8699L9.93489 26.7918C9.43138 27.2724 8.61558 27.2724 8.11207 26.7918L5.53395 24.3309C5.03035 23.8503 5.03035 23.0716 5.53395 22.591C6.03745 22.1104 6.85326 22.1104 7.35677 22.591L9.02344 24.1819L13.2683 20.13C13.7718 19.6494 14.5876 19.6494 15.0911 20.13C15.5946 20.6106 15.5946 21.3893 15.0911 21.8699ZM15.0911 14.4871L9.93489 19.409C9.43138 19.8896 8.61558 19.8896 8.11207 19.409L5.53395 16.9481C5.03035 16.4674 5.03035 15.6888 5.53395 15.2082C6.03745 14.7276 6.85326 14.7276 7.35677 15.2082L9.02344 16.7991L13.2683 12.7472C13.7718 12.2665 14.5876 12.2665 15.0911 12.7472C15.5946 13.2278 15.5946 14.0065 15.0911 14.4871ZM15.0911 7.10432L9.93489 12.0262C9.43138 12.5068 8.61558 12.5068 8.11207 12.0262L5.53395 9.56525C5.03035 9.08463 5.03035 8.30599 5.53395 7.82537C6.03745 7.34475 6.85326 7.34475 7.35677 7.82537L9.02344 9.41628L13.2683 5.36435C13.7718 4.88373 14.5876 4.88373 15.0911 5.36435C15.5946 5.84497 15.5946 6.62369 15.0911 7.10432ZM37.5547 24.6914H19.3359C18.6234 24.6914 18.0469 24.1411 18.0469 23.4609C18.0469 22.7808 18.6234 22.2305 19.3359 22.2305H37.5547C38.2672 22.2305 38.8438 22.7808 38.8438 23.4609C38.8438 24.1411 38.2672 24.6914 37.5547 24.6914ZM37.5547 17.3086H19.3359C18.6234 17.3086 18.0469 16.7582 18.0469 16.0781C18.0469 15.398 18.6234 14.8477 19.3359 14.8477H37.5547C38.2672 14.8477 38.8438 15.398 38.8438 16.0781C38.8438 16.7582 38.2672 17.3086 37.5547 17.3086ZM37.5547 9.92578H19.3359C18.6234 9.92578 18.0469 9.37543 18.0469 8.69531C18.0469 8.01519 18.6234 7.46484 19.3359 7.46484H37.5547C38.2672 7.46484 38.8438 8.01519 38.8438 8.69531C38.8438 9.37543 38.2672 9.92578 37.5547 9.92578Z" />
    </symbol>

    <symbol viewBox="0 0 42 36" id="integration-icon">
        <path d="M16.0781 12.7266H27.1523V1.05469C27.1523 0.4725 26.6011 0 25.9219 0H1.23047C0.55125 0 0 0.4725 0 1.05469V22.2188C0 22.8009 0.55125 23.2734 1.23047 23.2734H14.8477V13.7812C14.8477 13.1991 15.3989 12.7266 16.0781 12.7266Z" />
        <path d="M40.7695 12.7266H27.1523V22.2188C27.1523 22.8009 26.6011 23.2734 25.9219 23.2734H14.8477V34.9453C14.8477 35.5275 15.3989 36 16.0781 36H40.7695C41.4487 36 42 35.5275 42 34.9453V13.7813C42 13.1991 41.4487 12.7266 40.7695 12.7266Z" />
    </symbol>

    <symbol viewBox="0 0 36 23" id="arrow-icon">
        <path d="M35.3842 11.6216L24.2588 22.0287C23.969 22.2997 23.4997 22.2997 23.21 22.0287C22.9202 21.7576 22.9202 21.3186 23.21 21.0476L33.0694 11.8249L0.741723 11.8249C0.331749 11.8249 1.00162e-06 11.5146 1.03746e-06 11.1311C1.07331e-06 10.7476 0.331749 10.4372 0.741723 10.4372L33.0694 10.4372L23.21 1.2146C22.9202 0.94356 22.9202 0.504515 23.21 0.233542C23.3548 0.0980559 23.5446 0.0302801 23.7344 0.0302801C23.9242 0.0302801 24.1139 0.0980559 24.2588 0.233542L35.3843 10.6406C35.674 10.9115 35.674 11.3506 35.3842 11.6216Z" />
    </symbol>

    <symbol viewBox="0 0 25 24" id="linkedin-icon">
        <path d="M21.3379 0H3.66211C1.64299 0 0 1.55171 0 3.45866V20.1525C0 22.0594 1.64299 23.6111 3.66211 23.6111H21.3379C23.357 23.6111 25 22.0594 25 20.1525V3.45866C25 1.55171 23.357 0 21.3379 0ZM8.83789 18.7229H5.9082V9.03863H8.83789V18.7229ZM8.83789 7.65516H5.9082V4.88824H8.83789V7.65516ZM19.0918 18.7229H16.1621V13.189C16.1621 12.4263 15.5048 11.8056 14.6973 11.8056C13.8897 11.8056 13.2324 12.4263 13.2324 13.189V18.7229H10.3027V9.03863H13.2324V9.56013C13.9999 9.33478 14.4985 9.03863 15.4297 9.03863C17.4166 9.04061 19.0918 10.724 19.0918 12.7135V18.7229Z"/>
    </symbol>

    <symbol viewBox="0 0 25 24" id="facebook-icon">
        <path d="M21.632 0H3.36981C1.50931 0 0.00100708 1.42445 0.00100708 3.18164V20.4293C0.00100708 22.1865 1.50925 23.611 3.36981 23.611H12.3766L12.392 15.1737H10.071C9.7694 15.1737 9.52459 14.9434 9.52343 14.6585L9.5123 11.9388C9.51113 11.6524 9.75668 11.4196 10.06 11.4196H12.3767V8.7917C12.3767 5.74203 14.3488 4.08147 17.2293 4.08147H19.593C19.8954 4.08147 20.1407 4.31302 20.1407 4.5987V6.89195C20.1407 7.17751 19.8956 7.40901 19.5933 7.40919L18.1427 7.40982C16.5762 7.40982 16.2729 8.11286 16.2729 9.14461V11.4197H19.7151C20.0431 11.4197 20.2975 11.6902 20.2589 11.9978L19.9176 14.7175C19.8849 14.9777 19.6512 15.1738 19.3738 15.1738H16.2882L16.2729 23.6111H21.6321C23.4926 23.6111 25.0008 22.1867 25.0008 20.4295V3.18164C25.0008 1.42445 23.4925 0 21.632 0Z" />
    </symbol>

    <symbol viewBox="0 0 25 24" id="instagram-icon">
        <path d="M21.3379 0H3.66211C1.64299 0 0 1.55171 0 3.45866V20.1525C0 22.0594 1.64299 23.6111 3.66211 23.6111H21.3379C23.357 23.6111 25 22.0594 25 20.1525V3.45866C25 1.55171 23.357 0 21.3379 0ZM12.5488 17.985C8.91399 17.985 5.95703 15.1923 5.95703 11.7594C5.95703 8.32654 8.91399 5.53385 12.5488 5.53385C16.1837 5.53385 19.1406 8.32654 19.1406 11.7594C19.1406 15.1923 16.1837 17.985 12.5488 17.985ZM19.873 6.91732C18.6615 6.91732 17.6758 5.98636 17.6758 4.84212C17.6758 3.69788 18.6615 2.76693 19.873 2.76693C21.0846 2.76693 22.0703 3.69788 22.0703 4.84212C22.0703 5.98636 21.0846 6.91732 19.873 6.91732Z"/>
        <path d="M19.873 4.15039C19.4689 4.15039 19.1406 4.46041 19.1406 4.84212C19.1406 5.22384 19.4689 5.53385 19.873 5.53385C20.2772 5.53385 20.6055 5.22384 20.6055 4.84212C20.6055 4.46041 20.2772 4.15039 19.873 4.15039Z"/>
        <path d="M12.5488 6.91748C9.72214 6.91748 7.42188 9.08995 7.42188 11.7596C7.42188 14.4293 9.72214 16.6017 12.5488 16.6017C15.3755 16.6017 17.6758 14.4293 17.6758 11.7596C17.6758 9.08995 15.3755 6.91748 12.5488 6.91748Z"/>
    </symbol>

    <symbol viewBox="0 0 25 22" id="cross-icon">
        <line x1="0" y1="0" x2="25" y2="22" stroke-width="3"/>
        <line x1="0" y1="22" x2="25" y2="0" stroke-width="3"/>
    </symbol>
</svg>